<svg width="24" height="24" viewBox="0 0 24 24" fill="none" xmlns="http://www.w3.org/2000/svg">
<g clip-path="url(#clip0_50_2666)">
<path d="M23.9714 1L13.4414 8.79143L15.3995 4.19969L23.9714 1Z" fill="#E17726"/>
<path d="M0.59375 1.00977L9.14263 4.20086L11.002 8.85281L0.59375 1.00977Z" fill="#E27625"/>
<path d="M19.7335 17.5703L24.3875 17.6589L22.761 23.1845L17.082 21.6208L19.7335 17.5703Z" fill="#E27625"/>
<path d="M4.80659 17.5703L7.44823 21.6209L1.77875 23.1846L0.162109 17.6589L4.80659 17.5703Z" fill="#E27625"/>
<path d="M10.7491 7.66699L10.9394 13.81L5.24805 13.5511L6.86689 11.1088L6.88738 11.0853L10.7491 7.66699Z" fill="#E27625"/>
<path d="M13.7327 7.59863L17.6534 11.0857L17.6736 11.1091L19.2925 13.5513L13.6025 13.8102L13.7327 7.59863Z" fill="#E27625"/>
<path d="M7.61458 17.5879L10.7222 20.0092L7.1123 21.7521L7.61458 17.5879Z" fill="#E27625"/>
<path d="M16.9263 17.5879L17.4181 21.7525L13.8184 20.0094L16.9263 17.5879Z" fill="#E27625"/>
<path d="M13.8975 19.7812L17.5504 21.55L14.1524 23.165L14.1877 22.0976L13.8975 19.7812Z" fill="#D5BFB2"/>
<path d="M10.6414 19.7822L10.3625 22.0803L10.3854 23.1639L6.97949 21.5502L10.6414 19.7822Z" fill="#D5BFB2"/>
<path d="M9.58644 14.6123L10.541 16.6185L7.29102 15.6664L9.58644 14.6123Z" fill="#233447"/>
<path d="M14.9534 14.6123L17.2596 15.6662L13.999 16.618L14.9534 14.6123Z" fill="#233447"/>
<path d="M7.86349 17.5674L7.33814 21.8849L4.52246 17.6618L7.86349 17.5674Z" fill="#CC6228"/>
<path d="M16.6777 17.5674L20.0189 17.6618L17.1926 21.885L16.6777 17.5674Z" fill="#CC6228"/>
<path d="M19.3742 13.3076L16.9427 15.7857L15.068 14.929L14.1704 16.8159L13.582 13.5711L19.3742 13.3076Z" fill="#CC6228"/>
<path d="M5.16406 13.3076L10.9573 13.5712L10.3689 16.8159L9.47112 14.9293L7.6063 15.7858L5.16406 13.3076Z" fill="#CC6228"/>
<path d="M5.00098 12.7988L7.75199 15.5904L7.84733 18.3462L5.00098 12.7988Z" fill="#E27525"/>
<path d="M19.5428 12.793L16.6914 18.3503L16.7988 15.5895L19.5428 12.793Z" fill="#E27525"/>
<path d="M10.8237 12.9688L10.9344 13.6657L11.208 15.4018L11.0321 20.734L10.2005 16.4506L10.2002 16.4063L10.8237 12.9688Z" fill="#E27525"/>
<path d="M13.7157 12.959L14.3408 16.4061L14.3405 16.4504L13.5068 20.7446L13.4738 19.6705L13.3438 15.37L13.7157 12.959Z" fill="#E27525"/>
<path d="M17.0428 15.4785L16.9497 17.8729L14.0476 20.134L13.4609 19.7195L14.1186 16.3322L17.0428 15.4785Z" fill="#F5841F"/>
<path d="M7.50781 15.4785L10.4219 16.3322L11.0795 19.7194L10.4929 20.1339L7.59064 17.8727L7.50781 15.4785Z" fill="#F5841F"/>
<path d="M6.4248 21.0215L10.1377 22.7807L10.1219 22.0295L10.4326 21.7568H14.1073L14.4292 22.0286L14.4055 22.7793L18.0948 21.0259L16.2996 22.5094L14.1287 24.0004H10.4028L8.23344 22.5033L6.4248 21.0215Z" fill="#C0AC9D"/>
<path d="M13.6318 19.5469L14.1568 19.9177L14.4644 22.3722L14.0192 21.9962H10.5227L10.0859 22.3797L10.3835 19.9179L10.9086 19.5469H13.6318Z" fill="#161616"/>
<path d="M23.276 1.21582L24.54 5.0078L23.7507 8.84186L24.3127 9.2755L23.5521 9.85582L24.1238 10.2973L23.3668 10.9867L23.8315 11.3232L22.5982 12.7636L17.5397 11.2908L17.4959 11.2673L13.8506 8.19222L23.276 1.21582Z" fill="#763E1A"/>
<path d="M1.26401 1.21582L10.6895 8.19222L7.04421 11.2673L7.00037 11.2908L1.94181 12.7636L0.708521 11.3232L1.17287 10.9869L0.416273 10.2973L0.986836 9.8563L0.214854 9.27432L0.798158 8.84042L0 5.00794L1.26401 1.21582Z" fill="#763E1A"/>
<path d="M17.292 10.9678L22.6518 12.5283L24.3931 17.895L19.7992 17.895L16.6338 17.935L18.9358 13.448L17.292 10.9678Z" fill="#F5841F"/>
<path d="M7.24773 10.9678L5.60362 13.4479L7.90592 17.935L4.74208 17.895H0.15625L1.8878 12.5283L7.24773 10.9678Z" fill="#F5841F"/>
<path d="M15.6618 4.17383L14.1627 8.22283L13.8445 13.6927L13.7228 15.4071L13.7131 19.7867H10.8266L10.8173 15.4153L10.6952 13.6912L10.3769 8.22283L8.87793 4.17383H15.6618Z" fill="#F5841F"/>
</g>
<defs>
<clipPath id="clip0_50_2666">
<rect width="24" height="24" fill="white"/>
</clipPath>
</defs>
</svg>
