<svg width="97" height="96" viewBox="0 0 97 96" fill="none" xmlns="http://www.w3.org/2000/svg">
<g id="logo" clip-path="url(#clip0_197_933)">
<g id="Layer 1">
<path id="Vector" d="M16.6318 47.8037H29.8515C29.9771 47.9608 30.1046 48.1178 30.2303 48.2749C28.2311 50.1594 26.2542 52.0661 24.2089 53.899C23.9188 54.1595 23.0726 54.2777 22.8583 54.0708C20.8887 52.1862 19.0005 50.2148 16.6337 47.8037H16.6318Z" fill="#F69320"/>
<path id="Vector_2" d="M24.8701 55.6729C26.8249 53.7089 28.8425 51.6802 31.1926 49.3171V62.631C28.7815 59.9779 26.8249 57.8254 24.8701 55.6729Z" fill="#F69320"/>
<path id="Vector_3" d="M33.2383 61.6591V49.1489C35.4961 51.3642 37.6079 53.4391 39.7345 55.5269C37.5488 57.5907 35.278 59.7339 33.2383 61.6591Z" fill="#F69320"/>
<path id="Vector_4" d="M46.8272 31.46C44.4955 33.6826 42.3394 35.7372 40.2479 37.7308C38.3744 35.8554 36.2663 33.7436 33.9863 31.46H46.8254H46.8272Z" fill="#F69320"/>
<path id="Vector_5" d="M48.431 15.5667V27.3747C46.4116 25.3313 44.3478 23.2435 42.127 20.9949C43.993 19.4115 45.4268 16.8988 48.431 15.5667Z" fill="#F69320"/>
<path id="Vector_6" d="M41.3272 56.8718C43.3891 58.9356 45.4455 60.9938 47.7384 63.2867H35.001C37.122 61.1343 39.1969 59.0317 41.3272 56.8718Z" fill="#F69320"/>
<path id="Vector_7" d="M34.3242 29.529C36.7871 27.0883 38.777 25.1169 40.9461 22.9663C43.0043 25.2629 44.9369 27.4172 46.8289 29.529H34.3242Z" fill="#F69320"/>
<path id="Vector_8" d="M35.0029 47.7795H47.6055C45.3052 49.8877 43.1805 51.8369 40.8636 53.9617C39.234 52.2434 37.281 50.1814 35.0029 47.7795Z" fill="#F69320"/>
<path id="Vector_9" d="M48.2829 67.9081V79.0954C45.1808 78.4266 44.1239 75.6311 41.7627 74.5521C44.0463 72.2241 46.0307 70.201 48.2829 67.9062V67.9081Z" fill="#F69320"/>
<path id="Vector_10" d="M51.5088 68.1259C51.5088 71.9689 51.5088 75.435 51.5088 79.3132C54.6109 78.6443 55.6678 75.8489 58.029 74.7699C55.7454 72.4419 53.761 70.4188 51.5088 68.124V68.1259Z" fill="#F69320"/>
<path id="Vector_11" d="M48.4306 49.6218V61.332C46.0823 59.2571 44.412 57.4631 42.6494 55.403C43.9557 54.2335 46.4352 51.4085 48.4306 49.6218Z" fill="#F69320"/>
<path id="Vector_12" d="M50.9141 49.6218C50.9141 52.9734 50.9141 57.5481 50.9141 61.4447C53.2624 59.3698 54.8255 57.4871 56.9428 55.4769C55.6366 54.3074 52.7838 51.6413 50.9141 49.6218Z" fill="#F69320"/>
<path id="Vector_13" d="M39.2226 21.2371C36.878 23.6131 34.9251 25.7822 32.7745 27.7018C32.7745 25.6565 32.3735 22.9923 32.4899 20.7678C32.5768 19.116 34.8142 17.3719 36.126 18.3991C36.9002 19.0051 38.1473 20.328 39.2226 21.2371Z" fill="#F69320"/>
<path id="Vector_14" d="M23.2518 57.208C25.5003 59.3309 27.4939 61.2118 29.9143 63.4954C27.2093 63.4954 24.9774 63.6137 22.764 63.4548C21.2767 63.3476 20.2845 60.1383 21.3155 59.0298C21.9732 58.3203 22.7252 57.6976 23.2518 57.208Z" fill="#F69320"/>
<path id="Vector_15" d="M22.3959 38.1281C21.9358 37.6884 20.9566 36.7091 20.3857 35.9387C19.9644 35.3714 19.4415 34.3312 19.6817 33.9377C20.1935 33.0952 21.1062 32.0716 21.9709 31.9515C24.0365 31.6651 26.1668 31.8591 28.6297 31.8591C26.3793 33.9285 24.4319 35.8777 22.3977 38.1281H22.3959Z" fill="#F69320"/>
<path id="Vector_16" d="M26.5292 24.5572C28.1773 23.336 29.1158 22.1184 30.5293 21.0708C30.5293 23.5023 30.5034 25.9134 30.5034 28.3929C28.9773 26.9721 27.9278 25.8598 26.5273 24.5572H26.5292Z" fill="#F69320"/>
<path id="Vector_17" d="M18.1636 51.6117C19.4273 52.9679 20.6911 54.3222 22.1544 55.8908C21.5096 56.5818 20.7299 57.4188 19.5751 58.6567C18.8342 56.1106 18.2208 54.0044 17.6074 51.8962C17.7922 51.8002 17.9788 51.7059 18.1636 51.6099V51.6117Z" fill="#F69320"/>
<path id="Vector_18" d="M29.2105 29.5388H22.3281C23.5383 28.0829 24.4658 26.9669 25.5411 25.6736C26.7827 26.9817 27.8839 28.142 29.2105 29.5388Z" fill="#F69320"/>
<path id="Vector_19" d="M26.5166 68.6653C25.6667 67.7231 24.7133 66.6625 23.4551 65.2676H30.0215C28.8058 66.4464 27.7009 67.518 26.5166 68.6653Z" fill="#F69320"/>
<path id="Vector_20" d="M40.9147 19.659C40.0001 18.7111 38.8398 17.8021 37.8643 16.5845C40.0537 16.0395 43.1059 15.5259 45.1235 15.3245C45.1512 15.4926 42.4371 18.0589 40.9147 19.659Z" fill="#F69320"/>
<path id="Vector_21" d="M30.2634 67.9043V73.5007C29.0162 72.636 28.0333 71.9561 26.9746 71.2226C28.0241 70.1639 28.9349 69.2438 30.2634 67.9043Z" fill="#F69320"/>
<path id="Vector_22" d="M76.6785 55.4053C74.7237 53.4413 72.1223 50.559 69.6465 48.3733C69.6465 52.7891 69.6465 57.7924 69.6465 62.6313C72.0576 59.9781 74.7219 57.5578 76.6785 55.4053Z" fill="#F69320"/>
<path id="Vector_23" d="M67.9956 62.6313C67.9956 58.7606 67.9956 52.7115 67.9956 48.3733C65.7379 50.5886 63.0348 53.4413 60.9082 55.5272C63.166 57.7739 65.9559 60.7042 67.9956 62.6313Z" fill="#F69320"/>
<path id="Vector_24" d="M50.4355 15.3245C50.4355 19.5536 50.4355 24.0969 50.4355 27.855C52.455 25.8115 54.5188 23.7237 56.7396 21.4752C54.8513 19.7476 52.8467 17.719 50.4355 15.3245Z" fill="#F69320"/>
<path id="Vector_25" d="M58.5264 56.8718C56.4645 58.9356 54.4081 60.9938 52.1152 63.2867C56.5255 63.2867 60.6604 63.2867 64.8527 63.2867C62.7316 61.1343 60.6567 59.0317 58.5264 56.8718Z" fill="#F69320"/>
<path id="Vector_26" d="M64.8376 29.529C62.3748 27.0883 60.3849 25.1169 58.2158 22.9663C56.1576 25.2629 54.225 27.4172 52.333 29.529C56.104 29.529 60.1225 29.529 64.8376 29.529Z" fill="#F69320"/>
<path id="Vector_27" d="M59.4443 21.6655C61.9442 23.8956 64.056 25.7802 66.2066 27.6998C66.2066 25.6545 66.2934 23.4208 66.177 21.1962C66.0902 19.5445 63.3373 18.4636 62.0254 19.4909C61.2513 20.0969 60.5196 20.7565 59.4443 21.6655Z" fill="#F69320"/>
<path id="Vector_28" d="M78.3773 57.208C76.1288 59.3309 74.1352 61.2118 71.7148 63.4954C74.4197 63.4954 76.6517 63.6137 78.8651 63.4548C80.3524 63.3476 81.3446 60.1383 80.3136 59.0298C79.6559 58.3203 78.9039 57.6976 78.3773 57.208Z" fill="#F69320"/>
<path id="Vector_29" d="M61.6025 74.0768C63.3134 76.5821 64.4516 77.0034 66.7056 75.1743C67.247 74.7345 67.7163 73.9234 67.9177 73.2712C68.5662 71.1908 68.9764 68.6374 68.9764 66.8489C68.7971 66.788 63.5776 71.928 61.6025 74.0768Z" fill="#F69320"/>
<path id="Vector_30" d="M77.3216 37.3818C77.7816 36.942 78.5853 36.3434 79.1581 35.5729C79.5794 35.0057 80.1022 33.9655 79.862 33.572C79.3503 32.7295 78.4375 31.7059 77.5729 31.5858C75.5072 31.2994 73.3769 31.4934 70.9141 31.4934C73.1645 33.5627 75.1488 35.3863 77.3197 37.3818H77.3216Z" fill="#F69320"/>
<path id="Vector_31" d="M73.124 24.5577C71.4759 23.3364 70.4172 22.5512 69.002 21.5017C69.002 23.9332 69.002 25.912 69.002 28.3933C70.5281 26.9725 71.7235 25.8602 73.124 24.5577Z" fill="#F69320"/>
<path id="Vector_32" d="M84.1158 51.416C82.8521 52.7371 81.5883 54.0599 80.125 55.5898C80.7698 56.2641 81.5495 57.0808 82.7043 58.2873C83.4452 55.8041 84.3006 51.5084 84.1158 51.416Z" fill="#F69320"/>
<path id="Vector_33" d="M71.0361 29.5388C73.366 29.5388 75.3706 29.5388 77.9185 29.5388C76.7083 28.0829 75.7808 26.9669 74.7055 25.6736C73.4639 26.9817 72.3627 28.142 71.0361 29.5388Z" fill="#F69320"/>
<path id="Vector_34" d="M73.8526 68.5472C74.7025 67.6049 75.6558 66.5444 76.9141 65.1494C74.5029 65.1494 72.4983 65.1494 70.3477 65.1494C71.5634 66.3282 72.6683 67.3998 73.8526 68.5472Z" fill="#F69320"/>
<path id="Vector_35" d="M52.9482 14.4177C54.0845 15.6113 56.0356 17.4922 57.558 19.0922C58.4781 18.1074 59.5128 17.2169 60.5604 16.0473C58.2675 15.3249 52.976 14.2496 52.9482 14.4177Z" fill="#F69320"/>
<path id="Vector_36" d="M70.0703 68.1221C70.0703 70.1914 70.0703 71.7212 70.0703 73.7185C71.3175 72.8538 72.3004 72.1739 73.3591 71.4404C72.3096 70.3817 71.3987 69.4616 70.0703 68.1221Z" fill="#F69320"/>
<path id="Vector_37" d="M65.2701 47.9852L65.2775 47.9778H65.2664C62.7777 44.035 60.9301 40.8423 58.7407 37.3725L61.8779 34.1133L65.0706 30.7969H52.3018L55.4944 34.1133L58.6372 37.3781C56.555 41.0844 54.4339 44.5671 52.5198 47.9778H52.5105L52.5161 47.9834C52.5161 47.9834 52.5068 47.9981 52.5031 48.0055H52.5383L55.7032 51.2943L58.8959 54.6107L62.0886 51.2943L65.2535 48.0055H65.2886C65.2886 48.0055 65.2794 47.9907 65.2757 47.9834L65.2701 47.9852ZM54.384 47.7524C55.7753 45.5648 57.2275 43.2775 58.7481 40.8867C60.1227 43.0059 61.5546 45.2119 63.2027 47.7524H54.384Z" fill="#199146"/>
<g id="Group">
<path id="Vector_38" d="M10.867 44.3865C10.867 44.6581 10.8319 44.9038 10.7635 45.12C10.6952 45.338 10.6028 45.5283 10.4901 45.6946C10.3774 45.8609 10.2444 46.0013 10.0929 46.1195C9.94136 46.2359 9.78432 46.332 9.62173 46.4059C9.45914 46.4798 9.2947 46.5352 9.12657 46.5703C8.95843 46.6054 8.79954 46.6239 8.65173 46.6239H3.33246V45.2456H8.64988C8.91409 45.2456 9.12102 45.168 9.26698 45.0128C9.41295 44.8576 9.48685 44.6488 9.48685 44.3865C9.48685 44.259 9.46653 44.1426 9.42773 44.0373C9.38893 43.9319 9.3335 43.8396 9.26144 43.762C9.18938 43.6844 9.1007 43.6234 8.99723 43.5809C8.89377 43.5384 8.77737 43.5181 8.64988 43.5181H5.48123C5.25767 43.5181 5.01748 43.4793 4.76066 43.398C4.50199 43.3185 4.26365 43.1911 4.04194 43.0137C3.82022 42.8363 3.63731 42.6054 3.49135 42.319C3.34539 42.0326 3.27148 41.6834 3.27148 41.2695C3.27148 40.8557 3.34539 40.5065 3.49135 40.2219C3.63731 39.9374 3.82207 39.7065 4.04194 39.5272C4.26365 39.348 4.50199 39.2205 4.76066 39.1411C5.01932 39.0616 5.25951 39.021 5.48123 39.021H10.1742V40.3993H5.48123C5.21887 40.3993 5.01563 40.4788 4.86967 40.6377C4.72371 40.7966 4.6498 41.0072 4.6498 41.2677C4.6498 41.5282 4.72371 41.7425 4.86967 41.8959C5.01563 42.0492 5.22071 42.1268 5.48123 42.1268H8.66281C8.81062 42.1305 8.96767 42.1509 9.13396 42.1878C9.30024 42.2248 9.46468 42.282 9.62912 42.3596C9.79355 42.4372 9.9506 42.5352 10.0984 42.6534C10.2462 42.7716 10.3792 42.9139 10.4938 43.0802C10.6083 43.2465 10.6989 43.4368 10.7672 43.653C10.8338 43.8691 10.8689 44.113 10.8689 44.3846L10.867 44.3865Z" fill="#199146"/>
<path id="Vector_39" d="M18.8305 46.6234H17.4521V39.0205H18.8305V46.6234Z" fill="#199146"/>
<path id="Vector_40" d="M32.743 40.3988H29.7055V46.6234H28.3272V40.3988H25.2842V39.0205H32.7448V40.3988H32.743Z" fill="#199146"/>
<path id="Vector_41" d="M46.0565 40.3988H43.019V46.6234H41.6407V40.3988H38.5977V39.0205H46.0583V40.3988H46.0565Z" fill="#199146"/>
<path id="Vector_42" d="M75.7019 41.5777C75.7019 41.8918 75.6631 42.1727 75.5855 42.4203C75.5079 42.6678 75.4026 42.8858 75.2695 43.0743C75.1365 43.2628 74.9831 43.4254 74.8113 43.5602C74.6376 43.6951 74.4566 43.8041 74.2681 43.8909C74.0797 43.9778 73.8875 44.0406 73.6954 44.0794C73.5032 44.1182 73.3221 44.1385 73.1522 44.1385L76.0307 46.6254H73.8986L71.0256 44.1385H70.0334V42.7602H73.1503C73.324 42.7454 73.481 42.7103 73.6252 42.6512C73.7674 42.5921 73.8912 42.5145 73.9965 42.4147C74.1 42.3149 74.1813 42.1967 74.2386 42.0563C74.2958 41.9159 74.3236 41.757 74.3236 41.5759V40.7057C74.3236 40.6281 74.3143 40.5689 74.294 40.5283C74.2737 40.4876 74.2496 40.4581 74.2201 40.4378C74.1905 40.4193 74.1591 40.4064 74.124 40.4027C74.0908 40.399 74.0593 40.3971 74.0316 40.3971H69.4828V46.6217H68.1045V39.7135C68.1045 39.6174 68.123 39.5287 68.1581 39.4438C68.1932 39.3588 68.2412 39.2849 68.304 39.2202C68.365 39.1574 68.4389 39.1075 68.5239 39.0724C68.6089 39.0373 68.7013 39.0188 68.7992 39.0188H74.0316C74.3383 39.0188 74.5988 39.0742 74.8113 39.1851C75.0238 39.2959 75.1956 39.4364 75.3287 39.6045C75.4617 39.7726 75.5559 39.9537 75.615 40.1477C75.6742 40.3417 75.7019 40.5246 75.7019 40.6946V41.574V41.5777Z" fill="#199146"/>
<path id="Vector_43" d="M84.1029 46.6234H82.7246V39.0205H84.1029V46.6234Z" fill="#199146"/>
<path id="Vector_44" d="M96.8699 44.386C96.8699 44.6576 96.8348 44.9033 96.7665 45.1195C96.6981 45.3375 96.6057 45.5278 96.493 45.6941C96.3803 45.8604 96.2473 46.0008 96.0958 46.119C95.9443 46.2354 95.7872 46.3315 95.6247 46.4054C95.4621 46.4793 95.2976 46.5347 95.1295 46.5698C94.9614 46.605 94.8025 46.6234 94.6547 46.6234H89.3372V45.2451H94.6547C94.9189 45.2451 95.1258 45.1675 95.2718 45.0123C95.4177 44.8571 95.4916 44.6483 95.4916 44.386C95.4916 44.2585 95.4713 44.1421 95.4325 44.0368C95.3937 43.9315 95.3383 43.8391 95.2662 43.7615C95.1942 43.6839 95.1055 43.6229 95.002 43.5804C94.8985 43.5379 94.7821 43.5176 94.6547 43.5176H91.4842C91.2606 43.5176 91.0204 43.4788 90.7636 43.3975C90.5049 43.3181 90.2666 43.1906 90.0449 43.0132C89.8232 42.8358 89.6402 42.6049 89.4943 42.3185C89.3483 42.0321 89.2744 41.6829 89.2744 41.2691C89.2744 40.8552 89.3483 40.506 89.4943 40.2215C89.6402 39.9369 89.825 39.706 90.0449 39.5268C90.2666 39.3475 90.5049 39.2201 90.7636 39.1406C91.0223 39.0612 91.2624 39.0205 91.4842 39.0205H96.1771V40.3988H91.4842C91.2218 40.3988 91.0186 40.4783 90.8726 40.6372C90.7266 40.7961 90.6527 41.0067 90.6527 41.2672C90.6527 41.5277 90.7266 41.742 90.8726 41.8954C91.0186 42.0487 91.2236 42.1263 91.4842 42.1263H94.6657C94.8136 42.13 94.9706 42.1504 95.1369 42.1873C95.3032 42.2243 95.4676 42.2815 95.632 42.3591C95.7965 42.4367 95.9535 42.5347 96.1013 42.6529C96.2491 42.7712 96.3822 42.9134 96.4967 43.0797C96.6113 43.246 96.7018 43.4363 96.7702 43.6525C96.8367 43.8686 96.8718 44.1125 96.8718 44.3841L96.8699 44.386Z" fill="#199146"/>
</g>
<path id="Vector_45" d="M78.2553 47.9297C76.3486 47.9297 74.3587 47.9297 72.21 47.9297C74.3957 50.1561 76.1398 51.976 77.9579 53.7164C78.0336 53.7885 78.1944 53.8162 78.3773 53.8125C78.5565 53.8162 78.7117 53.7885 78.7856 53.7164C80.6037 51.976 82.3478 50.1561 84.5335 47.9297H78.2553Z" fill="#F69320"/>
<path id="Vector_46" d="M58.9072 65.3689C56.7326 65.3689 54.4656 65.3689 52.0156 65.3689C54.5081 67.9057 56.4942 69.9805 58.5673 71.9649C58.6541 72.048 58.837 72.0794 59.0458 72.0739C59.249 72.0776 59.4264 72.0462 59.5095 71.9649C61.5826 69.9805 63.5687 67.9075 66.0612 65.3689H58.9054H58.9072Z" fill="#F69320"/>
<path id="Vector_47" d="M40.1299 65.3689C37.9552 65.3689 35.6882 65.3689 33.2383 65.3689C35.7307 67.9057 37.7169 69.9805 39.7899 71.9649C39.8768 72.048 40.0597 72.0794 40.2684 72.0739C40.4717 72.0776 40.6491 72.0462 40.7322 71.9649C42.8052 69.9805 44.7914 67.9075 47.2838 65.3689H40.128H40.1299Z" fill="#F69320"/>
<path id="Vector_48" d="M38.8012 73.8924C36.9092 76.2648 35.7434 76.601 33.6297 74.6093C33.1216 74.1308 32.7151 73.2864 32.5618 72.6213C32.0703 70.4984 31.8505 67.921 31.9816 66.138C32.1645 66.09 36.9887 71.6032 38.7993 73.8924H38.8012Z" fill="#F69320"/>
</g>
</g>
<defs>
<clipPath id="clip0_197_933">
<rect width="96" height="96" fill="white" transform="translate(0.871094)"/>
</clipPath>
</defs>
</svg>
