<svg width="97" height="96" viewBox="0 0 97 96" fill="none" xmlns="http://www.w3.org/2000/svg">
<g clip-path="url(#clip0_460_9170)">
<path d="M16.6309 47.8036H29.8505C29.9762 47.9606 30.1036 48.1177 30.2293 48.2747C28.2302 50.1593 26.2532 52.066 24.2079 53.8989C23.9178 54.1594 23.0716 54.2776 22.8573 54.0707C20.8878 52.1861 18.9995 50.2147 16.6327 47.8036H16.6309Z" fill="#F69320"/>
<path d="M24.8691 55.6727C26.8239 53.7087 28.8415 51.6801 31.1917 49.317V62.6308C28.7805 59.9777 26.8239 57.8252 24.8691 55.6727Z" fill="#F69320"/>
<path d="M33.2373 61.6589V49.1487C35.4951 51.364 37.6069 53.4389 39.7335 55.5267C37.5478 57.5905 35.2771 59.7337 33.2373 61.6589Z" fill="#F69320"/>
<path d="M46.8263 31.4599C44.4946 33.6826 42.3384 35.7371 40.2469 37.7307C38.3734 35.8554 36.2653 33.7435 33.9854 31.4599H46.8244H46.8263Z" fill="#F69320"/>
<path d="M48.43 15.5666V27.3747C46.4106 25.3312 44.3468 23.2434 42.126 20.9949C43.9921 19.4115 45.4258 16.8987 48.43 15.5666Z" fill="#F69320"/>
<path d="M41.3262 56.8716C43.3882 58.9354 45.4445 60.9936 47.7374 63.2865H35C37.1211 61.134 39.1959 59.0314 41.3262 56.8716Z" fill="#F69320"/>
<path d="M34.3232 29.5288C36.7861 27.0881 38.776 25.1167 40.9451 22.9661C43.0033 25.2627 44.9359 27.417 46.8279 29.5288H34.3232Z" fill="#F69320"/>
<path d="M35.002 47.7795H47.6045C45.3042 49.8877 43.1795 51.8369 40.8626 53.9617C39.233 52.2434 37.2801 50.1814 35.002 47.7795Z" fill="#F69320"/>
<path d="M48.2819 67.9079V79.0952C45.1798 78.4264 44.123 75.6309 41.7617 74.5519C44.0454 72.2239 46.0297 70.2008 48.2819 67.9061V67.9079Z" fill="#F69320"/>
<path d="M51.5078 68.1258C51.5078 71.9688 51.5078 75.4349 51.5078 79.313C54.61 78.6442 55.6668 75.8488 58.028 74.7698C55.7444 72.4418 53.7601 70.4186 51.5078 68.1239V68.1258Z" fill="#F69320"/>
<path d="M48.4296 49.6216V61.3318C46.0813 59.2569 44.4111 57.4629 42.6484 55.4028C43.9547 54.2333 46.4342 51.4083 48.4296 49.6216Z" fill="#F69320"/>
<path d="M50.9131 49.6216C50.9131 52.9732 50.9131 57.5479 50.9131 61.4445C53.2614 59.3696 54.8245 57.4869 56.9418 55.4767C55.6356 54.3072 52.7829 51.6411 50.9131 49.6216Z" fill="#F69320"/>
<path d="M39.2217 21.237C36.877 23.613 34.9241 25.7821 32.7735 27.7018C32.7735 25.6565 32.3726 22.9922 32.489 20.7677C32.5758 19.1159 34.8133 17.3718 36.1251 18.3991C36.8992 19.0051 38.1464 20.328 39.2217 21.237Z" fill="#F69320"/>
<path d="M23.2508 57.2079C25.4993 59.3308 27.4929 61.2117 29.9133 63.4953C27.2084 63.4953 24.9765 63.6136 22.763 63.4547C21.2757 63.3475 20.2835 60.1382 21.3145 59.0296C21.9722 58.3201 22.7242 57.6975 23.2508 57.2079Z" fill="#F69320"/>
<path d="M22.3949 38.1279C21.9348 37.6882 20.9556 36.7089 20.3847 35.9385C19.9634 35.3713 19.4406 34.3311 19.6807 33.9375C20.1925 33.095 21.1053 32.0714 21.9699 31.9513C24.0356 31.665 26.1659 31.859 28.6287 31.859C26.3783 33.9283 24.431 35.8775 22.3967 38.1279H22.3949Z" fill="#F69320"/>
<path d="M26.5282 24.5571C28.1763 23.3358 29.1149 22.1182 30.5283 21.0706C30.5283 23.5021 30.5024 25.9132 30.5024 28.3927C28.9763 26.9719 27.9269 25.8596 26.5264 24.5571H26.5282Z" fill="#F69320"/>
<path d="M18.1626 51.6115C19.4263 52.9677 20.6901 54.322 22.1534 55.8906C21.5086 56.5816 20.7289 57.4186 19.5742 58.6565C18.8333 56.1105 18.2199 54.0042 17.6064 51.8961C17.7912 51.8 17.9778 51.7058 18.1626 51.6097V51.6115Z" fill="#F69320"/>
<path d="M29.2095 29.5385H22.3271C23.5373 28.0826 24.4648 26.9667 25.5401 25.6733C26.7817 26.9814 27.8829 28.1417 29.2095 29.5385Z" fill="#F69320"/>
<path d="M26.5156 68.6652C25.6657 67.7229 24.7123 66.6624 23.4541 65.2675H30.0205C28.8048 66.4462 27.6999 67.5178 26.5156 68.6652Z" fill="#F69320"/>
<path d="M40.9137 19.659C39.9991 18.7111 38.8388 17.8021 37.8633 16.5845C40.0527 16.0395 43.105 15.5259 45.1225 15.3245C45.1503 15.4926 42.4361 18.0589 40.9137 19.659Z" fill="#F69320"/>
<path d="M30.2624 67.9042V73.5006C29.0152 72.6359 28.0323 71.956 26.9736 71.2225C28.0231 70.1638 28.9339 69.2437 30.2624 67.9042Z" fill="#F69320"/>
<path d="M76.6775 55.4052C74.7227 53.4412 72.1213 50.559 69.6455 48.3732C69.6455 52.789 69.6455 57.7924 69.6455 62.6312C72.0566 59.9781 74.7209 57.5577 76.6775 55.4052Z" fill="#F69320"/>
<path d="M67.9947 62.6312C67.9947 58.7605 67.9947 52.7114 67.9947 48.3732C65.7369 50.5885 63.0338 53.4412 60.9072 55.5272C63.165 57.7739 65.9549 60.7042 67.9947 62.6312Z" fill="#F69320"/>
<path d="M50.4346 15.3245C50.4346 19.5536 50.4346 24.0969 50.4346 27.855C52.454 25.8115 54.5178 23.7237 56.7386 21.4752C54.8504 19.7476 52.8457 17.719 50.4346 15.3245Z" fill="#F69320"/>
<path d="M58.5255 56.8716C56.4635 58.9354 54.4071 60.9936 52.1143 63.2865C56.5245 63.2865 60.6595 63.2865 64.8517 63.2865C62.7306 61.134 60.6558 59.0314 58.5255 56.8716Z" fill="#F69320"/>
<path d="M64.8367 29.5288C62.3738 27.0881 60.3839 25.1167 58.2148 22.9661C56.1566 25.2627 54.224 27.417 52.332 29.5288C56.103 29.5288 60.1216 29.5288 64.8367 29.5288Z" fill="#F69320"/>
<path d="M59.4434 21.6655C61.9432 23.8955 64.055 25.7801 66.2056 27.6998C66.2056 25.6545 66.2925 23.4207 66.1761 21.1962C66.0892 19.5444 63.3363 18.4636 62.0245 19.4908C61.2503 20.0969 60.5187 20.7565 59.4434 21.6655Z" fill="#F69320"/>
<path d="M78.3764 57.2079C76.1278 59.3308 74.1342 61.2117 71.7139 63.4953C74.4188 63.4953 76.6507 63.6136 78.8641 63.4547C80.3514 63.3475 81.3436 60.1382 80.3126 59.0296C79.6549 58.3201 78.9029 57.6975 78.3764 57.2079Z" fill="#F69320"/>
<path d="M61.6016 74.0766C63.3125 76.582 64.4506 77.0032 66.7047 75.1741C67.246 74.7343 67.7153 73.9233 67.9167 73.271C68.5652 71.1906 68.9754 68.6372 68.9754 66.8487C68.7962 66.7878 63.5767 71.9278 61.6016 74.0766Z" fill="#F69320"/>
<path d="M77.3206 37.3817C77.7807 36.942 78.5844 36.3433 79.1571 35.5729C79.5784 35.0057 80.1013 33.9655 79.8611 33.5719C79.3493 32.7294 78.4366 31.7058 77.5719 31.5857C75.5062 31.2994 73.376 31.4934 70.9131 31.4934C73.1635 33.5627 75.1478 35.3863 77.3188 37.3817H77.3206Z" fill="#F69320"/>
<path d="M73.123 24.5574C71.4749 23.3361 70.4162 22.5509 69.001 21.5015C69.001 23.9329 69.001 25.9117 69.001 28.3931C70.5271 26.9722 71.7225 25.86 73.123 24.5574Z" fill="#F69320"/>
<path d="M84.1149 51.4159C82.8511 52.7369 81.5873 54.0598 80.124 55.5896C80.7688 56.264 81.5485 57.0807 82.7033 58.2872C83.4442 55.804 84.2996 51.5083 84.1149 51.4159Z" fill="#F69320"/>
<path d="M71.0352 29.5385C73.365 29.5385 75.3697 29.5385 77.9175 29.5385C76.7073 28.0826 75.7798 26.9667 74.7045 25.6733C73.4629 26.9814 72.3617 28.1417 71.0352 29.5385Z" fill="#F69320"/>
<path d="M73.8516 68.547C74.7015 67.6047 75.6549 66.5442 76.9131 65.1492C74.502 65.1492 72.4973 65.1492 70.3467 65.1492C71.5624 66.328 72.6673 67.3996 73.8516 68.547Z" fill="#F69320"/>
<path d="M52.9473 14.4175C54.0835 15.611 56.0346 17.4919 57.5571 19.0919C58.4772 18.1072 59.5118 17.2166 60.5594 16.0471C58.2665 15.3247 52.975 14.2493 52.9473 14.4175Z" fill="#F69320"/>
<path d="M70.0693 68.122C70.0693 70.1913 70.0693 71.7212 70.0693 73.7184C71.3165 72.8537 72.2994 72.1738 73.3581 71.4403C72.3086 70.3816 71.3978 69.4615 70.0693 68.122Z" fill="#F69320"/>
<path d="M65.2692 47.9851L65.2766 47.9777H65.2655C62.7767 44.0349 60.9291 40.8422 58.7397 37.3724L61.877 34.1132L65.0696 30.7968H52.3008L55.4935 34.1132L58.6362 37.3779C56.554 41.0843 54.4329 44.567 52.5188 47.9777H52.5096L52.5151 47.9832C52.5151 47.9832 52.5059 47.998 52.5022 48.0054H52.5373L55.7022 51.2942L58.8949 54.6106L62.0876 51.2942L65.2525 48.0054H65.2876C65.2876 48.0054 65.2784 47.9906 65.2747 47.9832L65.2692 47.9851ZM54.383 47.7523C55.7743 45.5647 57.2265 43.2774 58.7471 40.8866C60.1217 43.0058 61.5536 45.2118 63.2017 47.7523H54.383Z" fill="#199146"/>
<path d="M10.866 44.3865C10.866 44.6581 10.8309 44.9038 10.7626 45.12C10.6942 45.338 10.6018 45.5283 10.4891 45.6946C10.3764 45.8609 10.2434 46.0013 10.0919 46.1195C9.94039 46.2359 9.78334 46.332 9.62075 46.4059C9.45816 46.4798 9.29372 46.5352 9.12559 46.5703C8.95746 46.6054 8.79856 46.6239 8.65075 46.6239H3.33148V45.2456H8.64891C8.91311 45.2456 9.12005 45.168 9.26601 45.0128C9.41197 44.8576 9.48587 44.6488 9.48587 44.3865C9.48587 44.259 9.46555 44.1426 9.42675 44.0373C9.38795 43.9319 9.33252 43.8396 9.26046 43.762C9.18841 43.6844 9.09972 43.6234 8.99626 43.5809C8.89279 43.5384 8.77639 43.5181 8.64891 43.5181H5.48025C5.25669 43.5181 5.0165 43.4793 4.75968 43.398C4.50102 43.3185 4.26268 43.1911 4.04096 43.0137C3.81925 42.8363 3.63633 42.6054 3.49037 42.319C3.34441 42.0326 3.27051 41.6834 3.27051 41.2695C3.27051 40.8557 3.34441 40.5065 3.49037 40.2219C3.63633 39.9374 3.8211 39.7065 4.04096 39.5272C4.26268 39.348 4.50102 39.2205 4.75968 39.1411C5.01835 39.0616 5.25854 39.021 5.48025 39.021H10.1732V40.3993H5.48025C5.21789 40.3993 5.01465 40.4788 4.86869 40.6377C4.72273 40.7966 4.64883 41.0072 4.64883 41.2677C4.64883 41.5282 4.72273 41.7425 4.86869 41.8959C5.01465 42.0492 5.21974 42.1268 5.48025 42.1268H8.66184C8.80965 42.1305 8.96669 42.1509 9.13298 42.1878C9.29926 42.2248 9.4637 42.282 9.62814 42.3596C9.79258 42.4372 9.94962 42.5352 10.0974 42.6534C10.2452 42.7716 10.3783 42.9139 10.4928 43.0802C10.6074 43.2465 10.6979 43.4368 10.7663 43.653C10.8328 43.8691 10.8679 44.113 10.8679 44.3846L10.866 44.3865Z" fill="#199146"/>
<path d="M18.8295 46.6234H17.4512V39.0204H18.8295V46.6234Z" fill="#199146"/>
<path d="M32.742 40.3988H29.7045V46.6234H28.3262V40.3988H25.2832V39.0204H32.7439V40.3988H32.742Z" fill="#199146"/>
<path d="M46.0555 40.3988H43.018V46.6234H41.6397V40.3988H38.5967V39.0204H46.0573V40.3988H46.0555Z" fill="#199146"/>
<path d="M75.7009 41.5777C75.7009 41.8918 75.6621 42.1727 75.5845 42.4203C75.5069 42.6678 75.4016 42.8858 75.2686 43.0743C75.1355 43.2628 74.9822 43.4254 74.8103 43.5602C74.6367 43.6951 74.4556 43.8041 74.2671 43.8909C74.0787 43.9778 73.8865 44.0406 73.6944 44.0794C73.5022 44.1182 73.3212 44.1385 73.1512 44.1385L76.0298 46.6254H73.8976L71.0246 44.1385H70.0324V42.7602H73.1493C73.323 42.7454 73.4801 42.7103 73.6242 42.6512C73.7664 42.5921 73.8902 42.5145 73.9955 42.4147C74.099 42.3149 74.1803 42.1967 74.2376 42.0563C74.2949 41.9159 74.3226 41.757 74.3226 41.5759V40.7057C74.3226 40.6281 74.3133 40.5689 74.293 40.5283C74.2727 40.4876 74.2487 40.4581 74.2191 40.4378C74.1895 40.4193 74.1581 40.4064 74.123 40.4027C74.0898 40.399 74.0584 40.3971 74.0307 40.3971H69.4818V46.6217H68.1035V39.7135C68.1035 39.6174 68.122 39.5287 68.1571 39.4438C68.1922 39.3588 68.2402 39.2849 68.3031 39.2202C68.364 39.1574 68.4379 39.1075 68.5229 39.0724C68.6079 39.0373 68.7003 39.0188 68.7982 39.0188H74.0307C74.3374 39.0188 74.5979 39.0742 74.8103 39.1851C75.0228 39.2959 75.1946 39.4364 75.3277 39.6045C75.4607 39.7726 75.5549 39.9537 75.6141 40.1477C75.6732 40.3417 75.7009 40.5246 75.7009 40.6946V41.574V41.5777Z" fill="#199146"/>
<path d="M84.1019 46.6234H82.7236V39.0204H84.1019V46.6234Z" fill="#199146"/>
<path d="M96.869 44.3859C96.869 44.6575 96.8339 44.9032 96.7655 45.1194C96.6971 45.3374 96.6048 45.5277 96.4921 45.694C96.3794 45.8603 96.2463 46.0007 96.0948 46.119C95.9433 46.2354 95.7863 46.3314 95.6237 46.4054C95.4611 46.4793 95.2967 46.5347 95.1285 46.5698C94.9604 46.6049 94.8015 46.6234 94.6537 46.6234H89.3363V45.2451H94.6537C94.9179 45.2451 95.1248 45.1675 95.2708 45.0123C95.4167 44.8571 95.4907 44.6483 95.4907 44.3859C95.4907 44.2584 95.4703 44.142 95.4315 44.0367C95.3927 43.9314 95.3373 43.839 95.2652 43.7614C95.1932 43.6838 95.1045 43.6228 95.001 43.5804C94.8976 43.5379 94.7812 43.5175 94.6537 43.5175H91.4832C91.2596 43.5175 91.0194 43.4787 90.7626 43.3974C90.5039 43.318 90.2656 43.1905 90.0439 43.0131C89.8222 42.8358 89.6393 42.6048 89.4933 42.3184C89.3473 42.0321 89.2734 41.6829 89.2734 41.269C89.2734 40.8551 89.3473 40.5059 89.4933 40.2214C89.6393 39.9369 89.824 39.7059 90.0439 39.5267C90.2656 39.3475 90.5039 39.22 90.7626 39.1405C91.0213 39.0611 91.2615 39.0204 91.4832 39.0204H96.1761V40.3988H91.4832C91.2208 40.3988 91.0176 40.4782 90.8716 40.6371C90.7257 40.796 90.6518 41.0066 90.6518 41.2671C90.6518 41.5277 90.7257 41.742 90.8716 41.8953C91.0176 42.0487 91.2227 42.1263 91.4832 42.1263H94.6648C94.8126 42.13 94.9696 42.1503 95.1359 42.1873C95.3022 42.2242 95.4666 42.2815 95.6311 42.3591C95.7955 42.4367 95.9526 42.5346 96.1004 42.6529C96.2482 42.7711 96.3812 42.9134 96.4958 43.0796C96.6103 43.2459 96.7008 43.4362 96.7692 43.6524C96.8357 43.8686 96.8708 44.1125 96.8708 44.3841L96.869 44.3859Z" fill="#199146"/>
<path d="M78.2544 47.9296C76.3476 47.9296 74.3578 47.9296 72.209 47.9296C74.3947 50.1559 76.1389 51.9758 77.9569 53.7163C78.0327 53.7883 78.1934 53.8161 78.3763 53.8124C78.5555 53.8161 78.7107 53.7883 78.7846 53.7163C80.6027 51.9758 82.3468 50.1559 84.5326 47.9296H78.2544Z" fill="#F69320"/>
<path d="M58.9062 65.3687C56.7316 65.3687 54.4646 65.3687 52.0146 65.3687C54.5071 67.9055 56.4933 69.9804 58.5663 71.9647C58.6531 72.0478 58.836 72.0792 59.0448 72.0737C59.2481 72.0774 59.4254 72.046 59.5086 71.9647C61.5816 69.9804 63.5678 67.9073 66.0602 65.3687H58.9044H58.9062Z" fill="#F69320"/>
<path d="M40.1289 65.3687C37.9543 65.3687 35.6872 65.3687 33.2373 65.3687C35.7297 67.9055 37.7159 69.9804 39.7889 71.9647C39.8758 72.0478 40.0587 72.0792 40.2675 72.0737C40.4707 72.0774 40.6481 72.046 40.7312 71.9647C42.8042 69.9804 44.7904 67.9073 47.2828 65.3687H40.1271H40.1289Z" fill="#F69320"/>
<path d="M38.8002 73.8923C36.9082 76.2646 35.7424 76.6009 33.6287 74.6092C33.1206 74.1307 32.7142 73.2863 32.5608 72.6212C32.0693 70.4982 31.8495 67.9208 31.9807 66.1379C32.1636 66.0898 36.9877 71.6031 38.7983 73.8923H38.8002Z" fill="#F69320"/>
</g>
<defs>
<clipPath id="clip0_460_9170">
<rect width="96" height="96" fill="white" transform="translate(0.870117)"/>
</clipPath>
</defs>
</svg>
